<svg width="62" height="62" viewBox="0 0 62 62" fill="none" xmlns="http://www.w3.org/2000/svg">
<circle cx="31" cy="31" r="31" fill="#009982"/>
<path d="M46.5 29.7588C46.506 32.0686 45.9664 34.3471 44.925 36.4088C43.6903 38.8794 41.7921 40.9574 39.443 42.4101C37.094 43.8628 34.3869 44.6328 31.625 44.6338C29.3152 44.6399 27.0367 44.1002 24.975 43.0588L15 46.3838L18.325 36.4088C17.2836 34.3471 16.744 32.0686 16.75 29.7588C16.7511 26.9969 17.5211 24.2898 18.9738 21.9408C20.4264 19.5918 22.5044 17.6936 24.975 16.4588C27.0367 15.4175 29.3152 14.8778 31.625 14.8838H32.5C36.1476 15.0851 39.5928 16.6247 42.176 19.2078C44.7592 21.791 46.2988 25.2362 46.5 28.8838V29.7588Z" stroke="white" stroke-width="2" stroke-linecap="round" stroke-linejoin="round"/>
<circle cx="26" cy="31" r="2" fill="white"/>
<circle cx="32" cy="31" r="2" fill="white"/>
<circle cx="38" cy="31" r="2" fill="white"/>
</svg>
